<svg width="172" height="52" viewBox="0 0 172 52" fill="none" xmlns="http://www.w3.org/2000/svg">
    <path d="M61.6236 29.8007C61.6236 31.2463 61.2974 32.4081 60.6542 33.2526C60.011 34.0972 59.1455 34.4825 57.9686 34.4825C56.9269 34.4825 56.1726 34.1138 55.6591 33.3761C55.1235 32.5906 54.851 31.5727 54.851 30.3502V21.8311H51.4796V30.9679C51.4796 32.9354 51.969 34.5655 52.9346 35.8139C53.9244 37.0918 55.3441 37.7408 57.1438 37.7408C58.6414 37.7408 59.8239 37.3941 60.6653 36.71C61.014 36.4276 61.336 36.114 61.6273 35.7733V37.3941H64.9635V21.8311H61.6273L61.6236 29.8007Z" fill="black"/>
    <path d="M85.7884 21.4507C83.3979 21.4507 81.6688 22.417 80.6474 24.3218C80.3316 23.606 79.8552 22.9715 79.2555 22.4667C78.4396 21.7937 77.3741 21.4507 76.0859 21.4507C74.5883 21.4507 73.4058 21.7973 72.5644 22.4815C72.2137 22.7643 71.8909 23.0798 71.6006 23.4237V21.8305H68.2273V37.3937H71.6006V29.3909C71.6006 27.9452 71.9267 26.7834 72.5717 25.9389C73.2167 25.0944 74.0786 24.7127 75.2556 24.7127C77.0979 24.7127 77.9929 26.068 77.9929 28.8543V37.3937H81.3667V28.3453C81.5052 27.2205 81.8872 26.317 82.5022 25.6697C83.1179 25.0225 83.917 24.7127 84.9604 24.7127C86.8006 24.7127 87.6956 26.068 87.6956 28.8543V37.3937H91.0694V28.2236C91.0694 26.2229 90.6432 24.5873 89.7992 23.3629C88.9301 22.0943 87.5792 21.4507 85.7884 21.4507Z" fill="black"/>
    <path d="M95.944 14.2592C95.6312 14.2504 95.3207 14.3041 95.0292 14.417C94.7385 14.5299 94.4729 14.6996 94.2484 14.9163C94.0246 15.1331 93.8465 15.3922 93.7248 15.6786C93.6038 15.965 93.5406 16.2726 93.5406 16.5836C93.5406 16.8944 93.6038 17.2021 93.7248 17.4884C93.8465 17.7748 94.0246 18.034 94.2484 18.2507C94.4729 18.4674 94.7385 18.6372 95.0292 18.7501C95.3207 18.863 95.6312 18.9166 95.944 18.9079C96.25 18.9137 96.5544 18.8565 96.8383 18.7396C97.1214 18.6229 97.3771 18.4491 97.5894 18.2293C98.0111 17.7844 98.2462 17.196 98.2462 16.5845C98.2462 15.9729 98.0111 15.3845 97.5894 14.9396C97.3779 14.7189 97.1221 14.5444 96.8383 14.4273C96.5552 14.3102 96.2507 14.2529 95.944 14.2592Z" fill="black"/>
    <path d="M97.6153 21.7993H94.2423V37.3937H97.6153V21.7993Z" fill="black"/>
    <path d="M108.785 21.4507C107.287 21.4507 106.104 21.7973 105.263 22.4815C104.912 22.7648 104.59 23.0803 104.299 23.4237V21.8305H100.926V37.3937H104.299V29.3909C104.299 27.9452 104.625 26.7834 105.27 25.9389C105.915 25.0944 106.777 24.7127 107.956 24.7127C108.996 24.7127 109.752 25.0815 110.263 25.8191C110.799 26.6046 111.072 27.6225 111.072 28.845V37.3845H114.445V28.2236C114.445 26.2561 113.955 24.626 112.988 23.3777C112.006 22.0998 110.59 21.4507 108.785 21.4507Z" fill="black"/>
    <path d="M128.148 22.5499C126.963 21.8126 125.591 21.4287 124.194 21.4435C122.776 21.4248 121.383 21.8085 120.175 22.5499C119.002 23.2781 118.047 24.3083 117.412 25.5316C116.756 26.7978 116.42 28.2044 116.436 29.6289C116.432 31.0147 116.773 32.38 117.429 33.6027C118.073 34.821 119.023 35.8518 120.188 36.5936C121.385 37.3505 122.777 37.7439 124.194 37.7258C125.6 37.7414 126.978 37.3416 128.155 36.577C129.31 35.8226 130.249 34.7832 130.879 33.5602C131.524 32.33 131.859 30.9627 131.856 29.5754C131.868 28.1606 131.533 26.7644 130.879 25.5076C130.252 24.296 129.308 23.2745 128.148 22.5499ZM124.194 34.4822C122.815 34.4822 121.766 34.0397 120.988 33.1306C120.209 32.2215 119.809 31.0432 119.809 29.6474C119.809 28.1869 120.2 26.9828 120.975 26.0682C121.749 25.1536 122.795 24.7165 124.194 24.7165C125.549 24.7165 126.578 25.1481 127.334 26.0368C128.09 26.9256 128.483 28.115 128.483 29.5515C128.483 30.9879 128.096 32.1681 127.33 33.1048C126.565 34.0415 125.547 34.4822 124.194 34.4822Z" fill="black"/>
    <path d="M143.828 29.8007C143.828 31.2463 143.501 32.4081 142.857 33.2526C142.211 34.0972 141.351 34.4825 140.175 34.4825C139.133 34.4825 138.379 34.1138 137.865 33.3761C137.33 32.5906 137.057 31.5727 137.057 30.3502V21.8311H133.684V30.9679C133.684 32.9354 134.175 34.5655 135.14 35.8139C136.13 37.0918 137.55 37.7408 139.35 37.7408C140.847 37.7408 142.03 37.3941 142.871 36.71C143.218 36.4273 143.538 36.1138 143.828 35.7733V37.3941H147.164V21.8311H143.828V29.8007Z" fill="black"/>
    <path d="M160.913 30.9512C160.56 30.3124 160.056 29.7687 159.445 29.3673C158.586 28.7994 157.347 28.3273 155.76 27.964C154.903 27.7151 154.314 27.5325 154.008 27.4108C153.728 27.3067 153.475 27.1416 153.267 26.9277C153.169 26.8269 153.093 26.707 153.043 26.5757C152.994 26.4444 152.973 26.3044 152.98 26.1643C152.972 25.9253 153.021 25.6879 153.124 25.4717C153.228 25.2556 153.381 25.067 153.571 24.9215C154.042 24.5715 154.62 24.3943 155.208 24.4199C155.877 24.3926 156.534 24.6037 157.061 25.0155C157.534 25.3972 157.764 25.8158 157.764 26.2897V26.6585H161.064V26.2897C161.061 25.6762 160.925 25.0707 160.666 24.5139C160.4 23.9309 160.022 23.4049 159.554 22.965C158.492 21.9545 157.03 21.4419 155.206 21.4419C153.604 21.4419 152.263 21.8678 151.217 22.7069C150.172 23.5458 149.605 24.7353 149.605 26.1956C149.605 27.1582 149.839 27.9492 150.3 28.5485C150.771 29.1506 151.387 29.6239 152.092 29.9242C153.029 30.3166 153.992 30.6432 154.974 30.9015C155.384 31.025 155.808 31.156 156.233 31.2942C156.564 31.3947 156.883 31.532 157.184 31.7036C157.76 32.0982 158.038 32.5352 158.038 33.0405C158.038 33.4904 157.823 33.8665 157.378 34.1967C156.933 34.5267 156.266 34.7222 155.493 34.7222C154.719 34.7502 153.959 34.5104 153.343 34.0436C153.049 33.8198 152.813 33.5287 152.655 33.1948C152.498 32.8609 152.423 32.4943 152.438 32.1258V31.7571H149.134V32.1258C149.13 32.8744 149.288 33.615 149.596 34.2981C149.902 34.9763 150.343 35.586 150.893 36.0904C151.486 36.6233 152.179 37.0344 152.932 37.3001C153.761 37.5945 154.636 37.7412 155.517 37.7333C157.158 37.7333 158.557 37.2926 159.678 36.4223C160.22 35.9998 160.657 35.4592 160.955 34.842C161.249 34.2425 161.403 33.5841 161.404 32.9169C161.408 32.2312 161.239 31.5556 160.913 30.9512Z" fill="black"/>
    <path d="M44.8832 32.1443V15.189H41.547V32.1443C41.549 33.5825 42.1241 34.9612 43.1463 35.9782C44.1685 36.9951 45.5543 37.5673 46.9999 37.5692H49.78V34.2501H46.9999C46.4388 34.2491 45.901 34.027 45.5042 33.6322C45.1075 33.2376 44.8842 32.7025 44.8832 32.1443Z" fill="black"/>
    <path d="M29.7238 18.0986C30.5901 17.2363 31.0768 16.0669 31.0768 14.8477C31.0768 13.6285 30.5901 12.4592 29.7238 11.5968C29.2947 11.1698 28.7854 10.8311 28.2247 10.6C27.664 10.3689 27.0631 10.25 26.4562 10.25C25.8493 10.25 25.2484 10.3689 24.6877 10.6C24.127 10.8311 23.6177 11.1698 23.1886 11.5968L11.9363 22.7916C11.5071 23.2184 11.1667 23.7253 10.9344 24.283C10.7021 24.8408 10.5826 25.4387 10.5826 26.0425C10.5826 26.6462 10.7021 27.2441 10.9344 27.8019C11.1667 28.3597 11.5071 28.8665 11.9363 29.2934L16.5884 33.9291C16.657 32.1301 17.3894 30.4193 18.6458 29.1237L29.7238 18.0986Z" fill="#7787FF"/>
    <path d="M23.3072 27.606L20.3138 30.584C19.5048 31.3935 18.9883 32.4472 18.8451 33.5798C18.7019 34.7125 18.9401 35.8605 19.5224 36.8442L23.0995 40.4031C23.5286 40.8301 24.0381 41.1688 24.5988 41.3999C25.1594 41.631 25.7603 41.7499 26.3672 41.7499C26.974 41.7499 27.575 41.631 28.1356 41.3999C28.6963 41.1688 29.2058 40.8301 29.6349 40.4031C30.5011 39.5407 30.9877 38.3714 30.9877 37.1522C30.9877 35.933 30.5011 34.7636 29.6349 33.9012L23.3072 27.606Z" fill="#76CBE3"/>
</svg>